<svg xmlns="http://www.w3.org/2000/svg" width="1200" height="500" viewBox="0 0 1200 500">
<defs>
<linearGradient id="b"><stop stop-color="#071326"/><stop offset=".55" stop-color="#0b1730"/><stop offset="1" stop-color="#160b2e"/></linearGradient>
<linearGradient id="c"><stop stop-color="#39f6ff"/><stop offset=".5" stop-color="#7b7cff"/><stop offset="1" stop-color="#d36bff"/></linearGradient>
<filter id="g"><feGaussianBlur stdDeviation="4" result="x"/><feMerge><feMergeNode in="x"/><feMergeNode in="SourceGraphic"/></feMerge></filter>
<pattern id="p" width="40" height="40" patternUnits="userSpaceOnUse"><path d="M40 0H0V40" fill="none" stroke="#6cefff" stroke-opacity=".055"/></pattern>
</defs>
<rect width="1200" height="500" rx="28" fill="url(#b)"/><rect x="1" y="1" width="1198" height="498" rx="28" fill="url(#p)" stroke="#3cecff" stroke-opacity=".35"/>
<g font-family="Arial,Helvetica,sans-serif"><text x="58" y="64" fill="#6ef7ff" font-size="15" letter-spacing="4">02 / SYSTEM CAPABILITIES</text><text x="58" y="105" fill="#f1f7ff" font-size="30" font-weight="700">THE BUILD STACK</text><text x="58" y="133" fill="#728bad" font-size="14">Grouped by what I can build — not a wall of badges.</text>
<g transform="translate(58 170)"><rect width="330" height="255" rx="16" fill="#0c1c35" stroke="#39f6ff" stroke-opacity=".38"/><text x="22" y="34" fill="#6ef7ff" font-size="12" letter-spacing="3">LANGUAGE CORE</text><g fill="#eaf4ff" font-size="17"><text x="24" y="75">◇ Python</text><text x="24" y="110">◇ C++</text><text x="24" y="145">◇ JavaScript</text><text x="24" y="180">◇ Java</text><text x="24" y="215">◇ HTML / CSS</text></g></g>
<g transform="translate(410 170)"><rect width="330" height="255" rx="16" fill="#0c1c35" stroke="#8e74ff" stroke-opacity=".45"/><text x="22" y="34" fill="#b19cff" font-size="12" letter-spacing="3">BUILD LAYER</text><g fill="#eaf4ff" font-size="17"><text x="24" y="75">◇ React / Vite</text><text x="24" y="110">◇ Tailwind CSS</text><text x="24" y="145">◇ Node / Express</text><text x="24" y="180">◇ React Native / Expo</text><text x="24" y="215">◇ REST / Socket.IO</text></g></g>
<g transform="translate(762 170)"><rect width="380" height="255" rx="16" fill="#0c1c35" stroke="#d36bff" stroke-opacity=".38"/><text x="22" y="34" fill="#d99bff" font-size="12" letter-spacing="3">DATA / AI / TOOLING</text><g fill="#eaf4ff" font-size="17"><text x="24" y="75">◇ MongoDB / MySQL</text><text x="24" y="110">◇ OpenCV / MediaPipe</text><text x="24" y="145">◇ NumPy</text><text x="24" y="180">◇ Git / GitHub / Postman</text><text x="24" y="215">◇ Maven</text></g></g>
<path d="M58 452H1142" stroke="url(#c)" opacity=".45"/><text x="58" y="480" fill="#5f7699" font-size="12" letter-spacing="2">DESIGN PRINCIPLE</text><text x="225" y="480" fill="#dcecff" font-size="14">Learn deeply → build practically → iterate in public.</text></g></svg>